<svg xmlns="http://www.w3.org/2000/svg" viewBox="0 0 600 120" fill="none" stroke="#4fa3d1" stroke-width="13.1" stroke-linecap="butt">
<line x1="9.4" y1="35.7" x2="9.4" y2="84.3"/>
<line x1="28.1" y1="35.9" x2="28.1" y2="84.1"/>
<line x1="46.9" y1="36.8" x2="46.9" y2="83.2"/>
<line x1="65.6" y1="48.6" x2="65.6" y2="71.4"/>
<line x1="84.4" y1="52.6" x2="84.4" y2="67.4"/>
<line x1="103.1" y1="33.9" x2="103.1" y2="86.1"/>
<line x1="121.9" y1="41.1" x2="121.9" y2="78.9"/>
<line x1="140.6" y1="54.2" x2="140.6" y2="65.8"/>
<line x1="159.4" y1="34.7" x2="159.4" y2="85.3"/>
<line x1="178.1" y1="33.1" x2="178.1" y2="86.9"/>
<line x1="196.9" y1="48.1" x2="196.9" y2="71.9"/>
<line x1="215.6" y1="36.8" x2="215.6" y2="83.2"/>
<line x1="234.4" y1="52.5" x2="234.4" y2="67.5"/>
<line x1="253.1" y1="44.8" x2="253.1" y2="75.2"/>
<line x1="271.9" y1="36.7" x2="271.9" y2="83.3"/>
<line x1="290.6" y1="45.5" x2="290.6" y2="74.5"/>
<line x1="309.4" y1="43.1" x2="309.4" y2="76.9"/>
<line x1="328.1" y1="51.7" x2="328.1" y2="68.3"/>
<line x1="346.9" y1="36.8" x2="346.9" y2="83.2"/>
<line x1="365.6" y1="43.6" x2="365.6" y2="76.4"/>
<line x1="384.4" y1="48.9" x2="384.4" y2="71.1"/>
<line x1="403.1" y1="37.6" x2="403.1" y2="82.4"/>
<line x1="421.9" y1="33.2" x2="421.9" y2="86.8"/>
<line x1="440.6" y1="42.7" x2="440.6" y2="77.3"/>
<line x1="459.4" y1="38.4" x2="459.4" y2="81.6"/>
<line x1="478.1" y1="33.0" x2="478.1" y2="87.0"/>
<line x1="496.9" y1="53.6" x2="496.9" y2="66.4"/>
<line x1="515.6" y1="41.4" x2="515.6" y2="78.6"/>
<line x1="534.4" y1="33.5" x2="534.4" y2="86.5"/>
<line x1="553.1" y1="51.7" x2="553.1" y2="68.3"/>
<line x1="571.9" y1="49.4" x2="571.9" y2="70.6"/>
<line x1="590.6" y1="42.4" x2="590.6" y2="77.6"/>
</svg>